<mxfile host="app.diagrams.net" modified="2023-11-02T14:11:42.027Z" agent="Mozilla/5.0 (Windows NT 10.0; Win64; x64) AppleWebKit/537.36 (KHTML, like Gecko) Chrome/118.0.0.0 Safari/537.36 Edg/118.0.2088.76" etag="jvuOCqFOuWwwsOhWovh-" version="22.0.8" type="device">
  <diagram name="Страница — 1" id="Hrbx1KmNpEyVZf2BnhBt">
    <mxGraphModel dx="2213" dy="1920" grid="1" gridSize="10" guides="1" tooltips="1" connect="1" arrows="1" fold="1" page="1" pageScale="1" pageWidth="827" pageHeight="1169" math="0" shadow="0">
      <root>
        <mxCell id="0" />
        <mxCell id="1" parent="0" />
        <mxCell id="EBMhhS9sxRZHPqX75Q00-2" value="" style="edgeStyle=orthogonalEdgeStyle;rounded=0;orthogonalLoop=1;jettySize=auto;html=1;" edge="1" parent="1" source="n9FYxXZpF2rJdnw8TL6y-1" target="EBMhhS9sxRZHPqX75Q00-1">
          <mxGeometry relative="1" as="geometry" />
        </mxCell>
        <mxCell id="n9FYxXZpF2rJdnw8TL6y-1" value="&lt;br&gt;&lt;br&gt;Открытие&lt;br&gt;страницы" style="ellipse;whiteSpace=wrap;html=1;aspect=fixed;" parent="1" vertex="1">
          <mxGeometry x="230" y="-10" width="110" height="110" as="geometry" />
        </mxCell>
        <mxCell id="n9FYxXZpF2rJdnw8TL6y-2" value="&lt;br&gt;&lt;br&gt;отображение&lt;br&gt;страницы" style="ellipse;whiteSpace=wrap;html=1;aspect=fixed;" parent="1" vertex="1">
          <mxGeometry x="230" y="290" width="110" height="110" as="geometry" />
        </mxCell>
        <mxCell id="n9FYxXZpF2rJdnw8TL6y-6" value="" style="triangle;whiteSpace=wrap;html=1;rotation=90;" parent="1" vertex="1">
          <mxGeometry x="270" width="30" height="40" as="geometry" />
        </mxCell>
        <mxCell id="n9FYxXZpF2rJdnw8TL6y-7" value="" style="ellipse;whiteSpace=wrap;html=1;aspect=fixed;fillColor=#000000;" parent="1" vertex="1">
          <mxGeometry x="270" y="300" width="30" height="30" as="geometry" />
        </mxCell>
        <mxCell id="n9FYxXZpF2rJdnw8TL6y-12" value="" style="endArrow=classic;html=1;rounded=0;" parent="1" source="n9FYxXZpF2rJdnw8TL6y-4" edge="1">
          <mxGeometry width="50" height="50" relative="1" as="geometry">
            <mxPoint x="130" y="330" as="sourcePoint" />
            <mxPoint x="190" y="490" as="targetPoint" />
          </mxGeometry>
        </mxCell>
        <mxCell id="n9FYxXZpF2rJdnw8TL6y-19" value="Нажатие кнопки&amp;nbsp;&lt;br&gt;&quot;размонтировать&quot;" style="ellipse;whiteSpace=wrap;html=1;aspect=fixed;" parent="1" vertex="1">
          <mxGeometry x="444" y="290" width="110" height="110" as="geometry" />
        </mxCell>
        <mxCell id="n9FYxXZpF2rJdnw8TL6y-34" value="" style="endArrow=classic;html=1;rounded=0;" parent="1" target="n9FYxXZpF2rJdnw8TL6y-4" edge="1">
          <mxGeometry width="50" height="50" relative="1" as="geometry">
            <mxPoint x="130" y="330" as="sourcePoint" />
            <mxPoint x="170" y="410" as="targetPoint" />
          </mxGeometry>
        </mxCell>
        <mxCell id="n9FYxXZpF2rJdnw8TL6y-4" value="Нажатие&lt;br&gt;кнопки&lt;br&gt;&quot;нажми меня&quot;" style="ellipse;whiteSpace=wrap;html=1;aspect=fixed;" parent="1" vertex="1">
          <mxGeometry x="40" y="290" width="110" height="110" as="geometry" />
        </mxCell>
        <mxCell id="n9FYxXZpF2rJdnw8TL6y-36" value="" style="endArrow=none;html=1;rounded=0;strokeWidth=3;" parent="1" edge="1">
          <mxGeometry width="50" height="50" relative="1" as="geometry">
            <mxPoint x="170" y="490" as="sourcePoint" />
            <mxPoint x="240" y="490" as="targetPoint" />
          </mxGeometry>
        </mxCell>
        <mxCell id="n9FYxXZpF2rJdnw8TL6y-37" value="" style="endArrow=classic;html=1;rounded=0;" parent="1" edge="1">
          <mxGeometry width="50" height="50" relative="1" as="geometry">
            <mxPoint x="280" y="400" as="sourcePoint" />
            <mxPoint x="210" y="490" as="targetPoint" />
          </mxGeometry>
        </mxCell>
        <mxCell id="n9FYxXZpF2rJdnw8TL6y-38" value="&lt;br&gt;Добавление новой информации о отработавших хуках" style="ellipse;whiteSpace=wrap;html=1;aspect=fixed;" parent="1" vertex="1">
          <mxGeometry x="140" y="710" width="110" height="110" as="geometry" />
        </mxCell>
        <mxCell id="n9FYxXZpF2rJdnw8TL6y-40" value="" style="endArrow=none;html=1;rounded=0;strokeWidth=3;" parent="1" edge="1">
          <mxGeometry width="50" height="50" relative="1" as="geometry">
            <mxPoint x="370" y="490" as="sourcePoint" />
            <mxPoint x="440" y="490" as="targetPoint" />
          </mxGeometry>
        </mxCell>
        <mxCell id="n9FYxXZpF2rJdnw8TL6y-41" value="" style="endArrow=classic;html=1;rounded=0;" parent="1" edge="1">
          <mxGeometry width="50" height="50" relative="1" as="geometry">
            <mxPoint x="320" y="390" as="sourcePoint" />
            <mxPoint x="400" y="490" as="targetPoint" />
          </mxGeometry>
        </mxCell>
        <mxCell id="n9FYxXZpF2rJdnw8TL6y-42" value="" style="endArrow=classic;html=1;rounded=0;" parent="1" edge="1">
          <mxGeometry width="50" height="50" relative="1" as="geometry">
            <mxPoint x="500" y="400" as="sourcePoint" />
            <mxPoint x="410" y="490" as="targetPoint" />
          </mxGeometry>
        </mxCell>
        <mxCell id="n9FYxXZpF2rJdnw8TL6y-45" value="" style="curved=1;endArrow=classic;html=1;rounded=0;exitX=0;exitY=0.5;exitDx=0;exitDy=0;" parent="1" target="n9FYxXZpF2rJdnw8TL6y-2" edge="1" source="n9FYxXZpF2rJdnw8TL6y-38">
          <mxGeometry width="50" height="50" relative="1" as="geometry">
            <mxPoint x="150" y="535" as="sourcePoint" />
            <mxPoint x="200" y="485" as="targetPoint" />
            <Array as="points">
              <mxPoint x="20" y="515" />
              <mxPoint x="-70" y="190" />
            </Array>
          </mxGeometry>
        </mxCell>
        <mxCell id="O4nke1Nj577BQN_JRRjG-1" value="&lt;br&gt;&lt;br&gt;&lt;br&gt;пустое&lt;br&gt;состояние" style="ellipse;whiteSpace=wrap;html=1;aspect=fixed;" parent="1" vertex="1">
          <mxGeometry x="340" y="710" width="110" height="110" as="geometry" />
        </mxCell>
        <mxCell id="O4nke1Nj577BQN_JRRjG-2" value="" style="ellipse;whiteSpace=wrap;html=1;aspect=fixed;fillColor=#000000;" parent="1" vertex="1">
          <mxGeometry x="380" y="720" width="30" height="30" as="geometry" />
        </mxCell>
        <mxCell id="EBMhhS9sxRZHPqX75Q00-3" value="" style="edgeStyle=orthogonalEdgeStyle;rounded=0;orthogonalLoop=1;jettySize=auto;html=1;" edge="1" parent="1" source="EBMhhS9sxRZHPqX75Q00-1" target="n9FYxXZpF2rJdnw8TL6y-7">
          <mxGeometry relative="1" as="geometry" />
        </mxCell>
        <mxCell id="EBMhhS9sxRZHPqX75Q00-1" value="&lt;br&gt;&lt;br&gt;отработка хуков&lt;br&gt;beforeCreated&lt;br&gt;Created&lt;br&gt;beforeMount&lt;br&gt;Mounted" style="ellipse;whiteSpace=wrap;html=1;aspect=fixed;" vertex="1" parent="1">
          <mxGeometry x="230" y="145" width="110" height="110" as="geometry" />
        </mxCell>
        <mxCell id="EBMhhS9sxRZHPqX75Q00-4" value="&lt;br&gt;&lt;br&gt;отработка хуков&lt;br&gt;beforeUptade&lt;br&gt;Updated" style="ellipse;whiteSpace=wrap;html=1;aspect=fixed;" vertex="1" parent="1">
          <mxGeometry x="150" y="540" width="110" height="110" as="geometry" />
        </mxCell>
        <mxCell id="EBMhhS9sxRZHPqX75Q00-6" value="" style="endArrow=classic;html=1;rounded=0;entryX=0.445;entryY=0;entryDx=0;entryDy=0;entryPerimeter=0;" edge="1" parent="1" target="EBMhhS9sxRZHPqX75Q00-4">
          <mxGeometry width="50" height="50" relative="1" as="geometry">
            <mxPoint x="200" y="490" as="sourcePoint" />
            <mxPoint x="130" y="580" as="targetPoint" />
          </mxGeometry>
        </mxCell>
        <mxCell id="EBMhhS9sxRZHPqX75Q00-7" value="" style="endArrow=classic;html=1;rounded=0;entryX=0.5;entryY=0;entryDx=0;entryDy=0;" edge="1" parent="1" target="n9FYxXZpF2rJdnw8TL6y-38">
          <mxGeometry width="50" height="50" relative="1" as="geometry">
            <mxPoint x="201" y="650" as="sourcePoint" />
            <mxPoint x="200" y="700" as="targetPoint" />
          </mxGeometry>
        </mxCell>
        <mxCell id="EBMhhS9sxRZHPqX75Q00-8" value="&lt;br&gt;отработка хуков&lt;br&gt;beforeUnmount&lt;br&gt;Unmounted" style="ellipse;whiteSpace=wrap;html=1;aspect=fixed;" vertex="1" parent="1">
          <mxGeometry x="350" y="540" width="110" height="110" as="geometry" />
        </mxCell>
        <mxCell id="EBMhhS9sxRZHPqX75Q00-9" value="" style="endArrow=classic;html=1;rounded=0;" edge="1" parent="1">
          <mxGeometry width="50" height="50" relative="1" as="geometry">
            <mxPoint x="408" y="490" as="sourcePoint" />
            <mxPoint x="410" y="540" as="targetPoint" />
          </mxGeometry>
        </mxCell>
        <mxCell id="EBMhhS9sxRZHPqX75Q00-10" value="" style="endArrow=classic;html=1;rounded=0;entryX=0.5;entryY=0;entryDx=0;entryDy=0;" edge="1" parent="1" target="O4nke1Nj577BQN_JRRjG-1">
          <mxGeometry width="50" height="50" relative="1" as="geometry">
            <mxPoint x="404" y="650" as="sourcePoint" />
            <mxPoint x="406" y="700" as="targetPoint" />
          </mxGeometry>
        </mxCell>
      </root>
    </mxGraphModel>
  </diagram>
</mxfile>
